<?xml version="1.0" encoding="iso-8859-1"?>
<!-- Generator: Adobe Illustrator 16.0.0, SVG Export Plug-In . SVG Version: 6.00 Build 0)  -->
<!DOCTYPE svg PUBLIC "-//W3C//DTD SVG 1.1//EN" "http://www.w3.org/Graphics/SVG/1.1/DTD/svg11.dtd">
<svg version="1.1" id="Capa_1" xmlns="http://www.w3.org/2000/svg" xmlns:xlink="http://www.w3.org/1999/xlink" x="0px" y="0px"
	 width="57.123px" height="57.123px" viewBox="0 0 57.123 57.123" style="enable-background:new 0 0 57.123 57.123;"
	 xml:space="preserve">
<g>
	<g>
		<path d="M28.967,33.019c5.75,0,10.429-5.242,10.429-11.686c0-6.444-4.678-11.686-10.429-11.686
			c-5.75,0-10.428,5.242-10.428,11.686C18.54,27.776,23.217,33.019,28.967,33.019z"/>
		<path d="M14.325,37.361v11.34c-4.811-3.5-8.389-8.665-9.727-14.737c-0.06-0.271-0.327-0.44-0.596-0.381
			c-0.27,0.06-0.44,0.325-0.381,0.596c2.597,11.785,13.256,20.34,25.346,20.34c11.619,0,21.904-7.809,25.011-18.99
			c0.074-0.266-0.082-0.542-0.348-0.616c-0.266-0.073-0.542,0.083-0.616,0.349c-1.545,5.56-4.945,10.238-9.404,13.474V37.361
			c0-0.215-0.138-0.406-0.342-0.474l-4.714-1.571c-0.264-0.088-0.545,0.054-0.632,0.315c-0.087,0.263,0.054,0.545,0.315,0.633
			l4.373,1.457v11.27c0,0.135,0.055,0.255,0.142,0.346c-3.862,2.563-8.441,4.064-13.285,4.162V37.361c0-0.276-0.224-0.5-0.5-0.5
			c-0.276,0-0.5,0.224-0.5,0.5v16.135c-4.835-0.099-9.415-1.606-13.274-4.174c0.08-0.088,0.132-0.203,0.132-0.332V37.722
			l4.373-1.459c0.262-0.086,0.403-0.369,0.316-0.631c-0.087-0.263-0.369-0.404-0.632-0.316l-4.714,1.57
			C14.462,36.955,14.325,37.146,14.325,37.361z"/>
		<path d="M56.224,18.205l-2.34,3.139c-3.195-11.079-13.285-18.74-24.917-18.74c-11.412,0-21.647,7.634-24.89,18.564
			c-0.079,0.265,0.073,0.543,0.337,0.622c0.264,0.08,0.543-0.073,0.622-0.337C8.153,10.944,17.994,3.604,28.966,3.604
			c11.167,0,20.854,7.343,23.943,17.968l-3.632-1.553c-0.254-0.11-0.547,0.009-0.655,0.263c-0.109,0.254,0.009,0.548,0.263,0.656
			l4.604,1.969c0.006,0.002,0.011,0.001,0.016,0.003c0.057,0.023,0.118,0.038,0.181,0.038l0,0l0,0l0,0
			c0.039,0,0.08-0.004,0.119-0.015c0.021-0.005,0.036-0.02,0.055-0.026c0.025-0.009,0.05-0.019,0.073-0.033
			c0.011-0.006,0.022-0.01,0.033-0.017c0.032-0.022,0.057-0.051,0.083-0.079c0.011-0.013,0.028-0.018,0.038-0.032l2.938-3.943
			c0.165-0.222,0.119-0.535-0.102-0.7C56.703,17.939,56.389,17.984,56.224,18.205z"/>
		<path d="M3.946,31.556c-0.03,0.009-0.057,0.021-0.085,0.037c-0.03,0.015-0.059,0.031-0.086,0.053
			c-0.011,0.009-0.024,0.012-0.035,0.021l-3.583,3.366c-0.201,0.188-0.211,0.505-0.022,0.707c0.098,0.104,0.231,0.158,0.364,0.158
			c0.123,0,0.246-0.045,0.342-0.136l3.295-3.098l3.859,2.531c0.085,0.057,0.18,0.082,0.274,0.082c0.163,0,0.323-0.08,0.418-0.227
			c0.151-0.23,0.087-0.541-0.144-0.691l-4.189-2.748c-0.012-0.008-0.026-0.009-0.038-0.016c-0.03-0.017-0.061-0.027-0.094-0.037
			c-0.03-0.01-0.06-0.018-0.091-0.021c-0.032-0.003-0.062-0.001-0.094,0.001C4.008,31.544,3.978,31.548,3.946,31.556z"/>
	</g>
</g>
<g>
</g>
<g>
</g>
<g>
</g>
<g>
</g>
<g>
</g>
<g>
</g>
<g>
</g>
<g>
</g>
<g>
</g>
<g>
</g>
<g>
</g>
<g>
</g>
<g>
</g>
<g>
</g>
<g>
</g>
</svg>
